<svg width="60" height="60" viewBox="0 0 60 60" fill="none" xmlns="http://www.w3.org/2000/svg">
<g clip-path="url(#clip0_88_316)">
<rect width="60" height="60" fill="#1ABCFE"/>
<path d="M30 0C13.4247 0 0 13.6288 0 30.4562C0 44.7693 9.67404 56.6485 22.726 59.9974C22.5753 59.6164 22.5013 59.0824 22.5013 58.5511V53.3722H18.7506C16.726 53.3722 14.8494 52.4598 14.0247 50.7828C13.0494 48.9554 12.8987 46.1379 10.4247 44.3857C9.67404 43.7766 10.274 43.1674 11.0987 43.2426C12.674 43.6988 13.9481 44.7667 15.1481 46.3634C16.3481 47.9627 16.874 48.3437 19.1234 48.3437C20.1728 48.3437 21.8221 48.2685 23.3234 48.0378C24.1481 45.9046 25.5728 44.0021 27.2987 43.0897C17.2494 41.8714 12.4494 36.8455 12.4494 29.9922C12.4494 27.0218 13.7234 24.2043 15.8247 21.7678C15.1506 19.4064 14.2494 14.5334 16.126 12.6309C20.6272 12.6309 23.326 15.6013 24 16.3608C26.2494 15.5988 28.726 15.1426 31.274 15.1426C33.8987 15.1426 36.2987 15.5988 38.5481 16.3608C39.2221 15.5988 41.9234 12.6309 46.4221 12.6309C48.2221 14.4583 47.3974 19.4064 46.6468 21.7678C48.7481 24.1291 49.9481 27.0218 49.9481 29.9922C49.9481 36.8455 45.2221 41.8714 35.2494 42.9368C38.0247 44.3831 39.9753 48.494 39.9753 51.5397V58.4759C39.9753 58.704 39.9013 58.9321 39.9013 59.1602C51.6 55.0492 60 43.7818 60 30.4562C60 13.6288 46.5753 0 30 0Z" fill="black"/>
</g>
<defs>
<clipPath id="clip0_88_316">
<rect width="60" height="60" fill="white"/>
</clipPath>
</defs>
</svg>
