<svg width="188" height="195" viewBox="0 0 188 195" fill="none" xmlns="http://www.w3.org/2000/svg">
<path d="M111.797 177.929L111.463 178.003C69.7741 187.206 27.9186 158.736 18.162 114.54L18.084 114.187C8.32737 69.9905 34.3072 26.5456 75.9963 17.3425L76.3298 17.2689C118.019 8.06568 159.874 36.5354 169.631 80.7315L169.709 81.0849C179.466 125.281 153.486 168.726 111.797 177.929ZM77.1969 22.7806C38.3342 31.3599 14.1186 71.8545 23.2137 113.054L23.2917 113.408C32.3868 154.607 71.4 181.144 110.263 172.564L110.596 172.491C149.459 163.912 173.674 123.417 164.579 82.2173L164.501 81.8639C155.406 40.6642 116.393 14.1278 77.5303 22.707L77.1969 22.7806Z" fill="url(#paint0_linear_85_234)"/>
<path d="M106.39 46.6027L61.0845 56.6043C48.568 59.3674 40.7686 72.41 43.6978 85.6792L53.398 129.62C56.3273 142.889 68.8928 151.436 81.4093 148.673L126.715 138.671C139.231 135.908 147.031 122.865 144.102 109.596L134.401 65.6557C131.472 52.3866 118.907 43.8396 106.39 46.6027ZM51.7053 83.9115C49.8097 75.3246 54.8587 66.8814 62.9585 65.0933L108.264 55.0917C116.364 53.3036 124.498 58.8366 126.394 67.4234L136.094 111.364C137.99 119.951 132.941 128.394 124.841 130.182L79.5353 140.184C71.4354 141.972 63.3011 136.439 61.4055 127.852L51.7053 83.9115Z" fill="url(#paint1_linear_85_234)"/>
<path d="M98.8399 120.016C110.479 117.447 117.738 105.316 115.012 92.9716C112.287 80.627 100.602 72.6785 88.9572 75.2491C77.3128 77.8197 70.0595 89.9491 72.7847 102.294C75.5098 114.638 87.1955 122.587 98.8399 120.016ZM90.8324 83.7435C98.0602 82.148 105.315 87.0824 107.006 94.7448C108.698 102.407 104.195 109.937 96.9671 111.533C89.7393 113.128 82.4849 108.194 80.7933 100.531C79.1018 92.8691 83.6047 85.3391 90.8324 83.7435Z" fill="url(#paint2_linear_85_234)"/>
<path d="M112.824 73.7728C115.958 73.0809 117.916 69.8142 117.181 66.486C116.447 63.1578 113.301 61.0179 110.161 61.7109C107.022 62.404 105.069 65.6696 105.804 68.9977C106.538 72.3259 109.685 74.4658 112.824 73.7728Z" fill="url(#paint3_linear_85_234)"/>
<defs>
<linearGradient id="paint0_linear_85_234" x1="52.8384" y1="166.295" x2="142.671" y2="34.2251" gradientUnits="userSpaceOnUse">
<stop stop-color="#FAAD4F"/>
<stop offset="0.35" stop-color="#DD2A7B"/>
<stop offset="0.62" stop-color="#9537B0"/>
<stop offset="1" stop-color="#515BD4"/>
</linearGradient>
<linearGradient id="paint1_linear_85_234" x1="64.9953" y1="145.966" x2="128.23" y2="53.0057" gradientUnits="userSpaceOnUse">
<stop stop-color="#FAAD4F"/>
<stop offset="0.35" stop-color="#DD2A7B"/>
<stop offset="0.62" stop-color="#9537B0"/>
<stop offset="1" stop-color="#515BD4"/>
</linearGradient>
<linearGradient id="paint2_linear_85_234" x1="82.4697" y1="116.752" x2="107.473" y2="79.9863" gradientUnits="userSpaceOnUse">
<stop stop-color="#FAAD4F"/>
<stop offset="0.35" stop-color="#DD2A7B"/>
<stop offset="0.62" stop-color="#9537B0"/>
<stop offset="1" stop-color="#515BD4"/>
</linearGradient>
<linearGradient id="paint3_linear_85_234" x1="108.412" y1="72.8932" x2="115.152" y2="62.9843" gradientUnits="userSpaceOnUse">
<stop stop-color="#FAAD4F"/>
<stop offset="0.35" stop-color="#DD2A7B"/>
<stop offset="0.62" stop-color="#9537B0"/>
<stop offset="1" stop-color="#515BD4"/>
</linearGradient>
</defs>
</svg>
