<svg width="188" height="195" viewBox="0 0 188 195" fill="none" xmlns="http://www.w3.org/2000/svg">
<path d="M112.011 177.414L111.678 177.488C69.9887 186.691 28.1332 158.221 18.3766 114.025L18.2986 113.672C8.54201 69.4756 34.5218 26.0307 76.211 16.8276L76.5445 16.754C118.234 7.55077 160.089 36.0205 169.846 80.2166L169.924 80.57C179.68 124.766 153.701 168.211 112.011 177.414ZM77.4115 22.2657C38.5488 30.845 14.3332 71.3396 23.4283 112.539L23.5064 112.893C32.6015 154.092 71.6147 180.629 110.477 172.05L110.811 171.976C149.674 163.397 173.889 122.902 164.794 81.7024L164.716 81.349C155.621 40.1493 116.608 13.6129 77.745 22.1921L77.4115 22.2657Z" fill="#00E510"/>
<path d="M113.396 116.672C94.6573 120.808 75.8427 108.006 71.4521 88.1416C70.3455 83.1048 73.3094 78.156 78.0492 77.1096C78.5365 77.0021 79.0283 76.9391 79.5092 76.9242C80.5645 76.8795 81.6093 77.0309 82.618 77.3843C82.7643 77.4375 82.8803 77.5488 82.9344 77.6965L87.8353 90.4905C87.8946 90.6371 87.8832 90.805 87.811 90.9407C87.0017 92.4653 85.8105 93.6978 84.3582 94.5032L83.6585 94.8915L84.1099 95.596C88.1867 101.928 94.6044 106.288 101.714 107.57L102.505 107.715L102.54 106.875C102.612 105.131 103.158 103.459 104.113 102.033C104.181 101.927 104.289 101.858 104.407 101.832C104.433 101.826 104.458 101.82 104.49 101.819L117.434 101.163C117.589 101.157 117.731 101.217 117.838 101.336C118.559 102.164 119.129 103.116 119.542 104.154C119.729 104.614 119.877 105.112 119.993 105.64C121.104 110.67 118.145 115.618 113.396 116.672Z" fill="#00E510"/>
<path d="M140.653 82.2755C136.97 70.3931 129.258 60.3184 118.94 53.9102C108.56 47.4643 96.4667 45.3206 84.8787 47.8787C59.4456 53.4932 43.5952 79.9991 49.5474 106.962C51.5451 116.011 55.8456 124.306 61.9984 131.001L57.2073 156.525L88.2436 145.904C94.3092 147.086 100.436 147.011 106.464 145.68C108.049 145.33 109.656 144.884 111.247 144.345C112.648 143.864 114.047 143.305 115.405 142.685C135.697 133.421 146.821 109.949 141.853 86.8583L141.795 86.5973C141.471 85.1289 141.085 83.6742 140.649 82.282L140.653 82.2755ZM87.2091 135.393L70.0382 141.271L72.5697 127.76L71.188 126.497C71.087 126.405 70.9861 126.313 70.8713 126.208C64.8304 120.532 60.6762 113.168 58.8538 104.913C54.1022 83.3885 66.7542 62.2311 87.0576 57.749C106.079 53.55 125.674 65.7234 131.662 85.4635C131.982 86.5222 132.267 87.5942 132.502 88.6601C132.57 88.9646 132.63 89.2648 132.696 89.5868C136.281 107.679 127.792 125.59 112.052 133.148C110.851 133.727 109.603 134.242 108.343 134.674C107.035 135.134 105.673 135.52 104.304 135.823C99.4254 136.9 94.4646 136.945 89.5494 135.954C89.005 135.852 88.4672 135.731 87.959 135.598L87.2166 135.403L87.2091 135.393Z" fill="#00E510"/>
</svg>
